<svg xmlns="http://www.w3.org/2000/svg" viewBox="520 728 610 160" width="610" height="160" role="img" aria-label="La Jetée">
  <title>La Jetée — logo principal (fond clair) — Fraunces Bold vectorisé</title>
  <g fill="#173B47"><g transform="translate(538.381211,826.524917)"><path d="M 31.4375 -85.265625 L 31.4375 -11.21875 C 31.4375 -9.738281 31.585938 -8.6875 31.890625 -8.0625 C 32.191406 -7.445312 32.679688 -7.019531 33.359375 -6.78125 L 35.09375 -6.1875 C 36.738281 -5.5 37.5625 -4.457031 37.5625 -3.0625 C 37.5625 -1.019531 36.238281 0 33.59375 0 L 8.09375 0 C 6.738281 0 5.738281 -0.269531 5.09375 -0.8125 C 4.457031 -1.351562 4.140625 -2.101562 4.140625 -3.0625 C 4.140625 -4.457031 4.941406 -5.5 6.546875 -6.1875 L 8.40625 -6.78125 C 9.082031 -7.0625 9.5625 -7.5 9.84375 -8.09375 C 10.125 -8.695312 10.265625 -9.71875 10.265625 -11.15625 L 10.265625 -73.4375 C 10.265625 -74.601562 10.101562 -75.4375 9.78125 -75.9375 C 9.457031 -76.4375 8.9375 -76.765625 8.21875 -76.921875 L 6 -77.21875 C 4.519531 -77.613281 3.78125 -78.515625 3.78125 -79.921875 C 3.78125 -80.722656 4.007812 -81.375 4.46875 -81.875 C 4.925781 -82.375 5.773438 -82.863281 7.015625 -83.34375 L 19.203125 -87.953125 C 21.078125 -88.679688 22.5625 -89.179688 23.65625 -89.453125 C 24.757812 -89.734375 25.710938 -89.875 26.515625 -89.875 C 28.160156 -89.875 29.390625 -89.441406 30.203125 -88.578125 C 31.023438 -87.722656 31.4375 -86.617188 31.4375 -85.265625 Z"/></g></g>
  <g fill="#173B47"><g transform="translate(578.761171,826.524917)"><path d="M 4.265625 -12.65625 C 4.265625 -16.175781 5.320312 -19.226562 7.4375 -21.8125 C 9.5625 -24.394531 12.632812 -26.394531 16.65625 -27.8125 C 20.675781 -29.226562 25.503906 -29.9375 31.140625 -29.9375 C 32.703125 -29.9375 34.140625 -29.863281 35.453125 -29.71875 C 36.773438 -29.582031 38 -29.375 39.125 -29.09375 L 39.125 -46.6875 C 39.125 -48.84375 38.550781 -50.539062 37.40625 -51.78125 C 36.269531 -53.019531 34.703125 -53.640625 32.703125 -53.640625 C 30.984375 -53.640625 29.613281 -53.269531 28.59375 -52.53125 C 27.570312 -51.789062 27.0625 -50.84375 27.0625 -49.6875 L 27.0625 -43.734375 C 27.0625 -40.859375 26.082031 -38.628906 24.125 -37.046875 C 22.164062 -35.472656 19.40625 -34.6875 15.84375 -34.6875 C 12.71875 -34.6875 10.394531 -35.363281 8.875 -36.71875 C 7.351562 -38.082031 6.59375 -39.960938 6.59375 -42.359375 C 6.59375 -44.273438 7.222656 -46.210938 8.484375 -48.171875 C 9.742188 -50.140625 11.625 -51.929688 14.125 -53.546875 C 16.625 -55.171875 19.753906 -56.472656 23.515625 -57.453125 C 27.273438 -58.429688 31.632812 -58.921875 36.59375 -58.921875 C 44.519531 -58.921875 50.410156 -57.398438 54.265625 -54.359375 C 58.128906 -51.316406 60.0625 -47.175781 60.0625 -41.9375 L 60.0625 -12 C 60.0625 -11.082031 60.269531 -10.351562 60.6875 -9.8125 C 61.101562 -9.269531 61.734375 -9 62.578125 -9 C 63.378906 -9 63.976562 -9.1875 64.375 -9.5625 C 64.78125 -9.945312 65.160156 -10.335938 65.515625 -10.734375 C 65.753906 -11.015625 66.003906 -11.253906 66.265625 -11.453125 C 66.523438 -11.660156 66.859375 -11.765625 67.265625 -11.765625 C 67.859375 -11.765625 68.296875 -11.539062 68.578125 -11.09375 C 68.859375 -10.65625 69 -10.097656 69 -9.421875 C 69 -8.265625 68.675781 -7.046875 68.03125 -5.765625 C 67.394531 -4.484375 66.457031 -3.289062 65.21875 -2.1875 C 63.976562 -1.09375 62.425781 -0.195312 60.5625 0.5 C 58.707031 1.207031 56.5625 1.5625 54.125 1.5625 C 50.71875 1.5625 47.84375 0.921875 45.5 -0.359375 C 43.164062 -1.640625 41.660156 -3.359375 40.984375 -5.515625 C 38.785156 -3.234375 36.046875 -1.484375 32.765625 -0.265625 C 29.484375 0.953125 26.039062 1.5625 22.4375 1.5625 C 18.84375 1.5625 15.671875 0.953125 12.921875 -0.265625 C 10.179688 -1.484375 8.050781 -3.160156 6.53125 -5.296875 C 5.019531 -7.441406 4.265625 -9.894531 4.265625 -12.65625 Z M 25.734375 -16.3125 C 25.734375 -13.519531 26.410156 -11.398438 27.765625 -9.953125 C 29.128906 -8.515625 30.894531 -7.796875 33.0625 -7.796875 C 34.144531 -7.796875 35.203125 -7.960938 36.234375 -8.296875 C 37.273438 -8.640625 38.238281 -9.09375 39.125 -9.65625 L 39.125 -24.0625 C 38.363281 -24.34375 37.582031 -24.550781 36.78125 -24.6875 C 35.976562 -24.832031 35.117188 -24.90625 34.203125 -24.90625 C 31.554688 -24.90625 29.484375 -24.15625 27.984375 -22.65625 C 26.484375 -21.15625 25.734375 -19.039062 25.734375 -16.3125 Z"/></g></g>
  <g fill="#173B47"><g transform="translate(674.101067,826.524917)"><path d="M 19.375 -66.0625 C 15.5 -66.0625 12.429688 -66.988281 10.171875 -68.84375 C 7.910156 -70.707031 6.78125 -73.21875 6.78125 -76.375 C 6.78125 -79.5 7.910156 -81.976562 10.171875 -83.8125 C 12.429688 -85.65625 15.5 -86.578125 19.375 -86.578125 C 23.21875 -86.578125 26.28125 -85.65625 28.5625 -83.8125 C 30.84375 -81.976562 31.984375 -79.5 31.984375 -76.375 C 31.984375 -73.21875 30.84375 -70.707031 28.5625 -68.84375 C 26.28125 -66.988281 23.21875 -66.0625 19.375 -66.0625 Z M 31.4375 -13.796875 C 31.4375 -11.597656 31.773438 -9.46875 32.453125 -7.40625 C 33.140625 -5.34375 33.921875 -3.3125 34.796875 -1.3125 C 35.679688 0.6875 36.460938 2.6875 37.140625 4.6875 C 37.816406 6.6875 38.15625 8.742188 38.15625 10.859375 C 38.15625 14.296875 37.285156 17.304688 35.546875 19.890625 C 33.804688 22.472656 31.335938 24.460938 28.140625 25.859375 C 24.941406 27.253906 21.125 27.953125 16.6875 27.953125 C 11.925781 27.953125 7.941406 27.269531 4.734375 25.90625 C 1.535156 24.550781 -0.859375 22.765625 -2.453125 20.546875 C -4.054688 18.328125 -4.859375 15.914062 -4.859375 13.3125 C -4.859375 10.070312 -4 7.640625 -2.28125 6.015625 C -0.5625 4.398438 1.757812 3.59375 4.6875 3.59375 C 7.476562 3.59375 9.703125 4.523438 11.359375 6.390625 C 13.023438 8.253906 13.859375 10.664062 13.859375 13.625 L 13.859375 17.515625 C 13.859375 19.203125 14.304688 20.453125 15.203125 21.265625 C 16.109375 22.085938 17.359375 22.5 18.953125 22.5 C 20.710938 22.5 22.070312 22.007812 23.03125 21.03125 C 24 20.050781 24.484375 18.582031 24.484375 16.625 C 24.484375 14.78125 24 12.988281 23.03125 11.25 C 22.070312 9.507812 20.894531 7.789062 19.5 6.09375 C 18.101562 4.394531 16.691406 2.671875 15.265625 0.921875 C 13.847656 -0.816406 12.660156 -2.570312 11.703125 -4.34375 C 10.742188 -6.125 10.265625 -7.976562 10.265625 -9.90625 L 10.265625 -42.359375 C 10.265625 -43.515625 10.101562 -44.34375 9.78125 -44.84375 C 9.457031 -45.34375 8.9375 -45.675781 8.21875 -45.84375 L 6 -46.140625 C 4.519531 -46.578125 3.78125 -47.476562 3.78125 -48.84375 C 3.78125 -49.675781 4.007812 -50.332031 4.46875 -50.8125 C 4.925781 -51.300781 5.773438 -51.785156 7.015625 -52.265625 L 19.203125 -56.875 C 21.117188 -57.59375 22.625 -58.101562 23.71875 -58.40625 C 24.820312 -58.707031 25.796875 -58.859375 26.640625 -58.859375 C 28.242188 -58.859375 29.441406 -58.425781 30.234375 -57.5625 C 31.035156 -56.707031 31.4375 -55.582031 31.4375 -54.1875 Z"/></g></g>
  <g fill="#173B47"><g transform="translate(714.361024,826.524917)"><path d="M 62.15625 -36.0625 C 62.15625 -33.582031 61.460938 -31.660156 60.078125 -30.296875 C 58.703125 -28.941406 56.71875 -28.265625 54.125 -28.265625 L 23.09375 -28.265625 C 24.0625 -23.054688 26.171875 -19.179688 29.421875 -16.640625 C 32.679688 -14.109375 36.753906 -12.84375 41.640625 -12.84375 C 44.722656 -12.84375 47.472656 -13.34375 49.890625 -14.34375 C 52.304688 -15.34375 54.394531 -16.941406 56.15625 -19.140625 C 57.113281 -20.054688 57.851562 -20.675781 58.375 -21 C 58.894531 -21.320312 59.414062 -21.484375 59.9375 -21.484375 C 60.65625 -21.484375 61.175781 -21.140625 61.5 -20.453125 C 61.820312 -19.773438 61.984375 -18.9375 61.984375 -17.9375 C 61.941406 -15.300781 61.238281 -12.8125 59.875 -10.46875 C 58.519531 -8.125 56.628906 -6.050781 54.203125 -4.25 C 51.785156 -2.457031 48.925781 -1.039062 45.625 0 C 42.332031 1.039062 38.6875 1.5625 34.6875 1.5625 C 30.195312 1.5625 26.0625 0.882812 22.28125 -0.46875 C 18.507812 -1.832031 15.222656 -3.785156 12.421875 -6.328125 C 9.617188 -8.867188 7.445312 -11.910156 5.90625 -15.453125 C 4.363281 -18.992188 3.59375 -22.921875 3.59375 -27.234375 C 3.59375 -33.554688 4.851562 -39.097656 7.375 -43.859375 C 9.894531 -48.617188 13.535156 -52.328125 18.296875 -54.984375 C 23.054688 -57.648438 28.773438 -58.984375 35.453125 -58.984375 C 41.210938 -58.984375 46.082031 -58 50.0625 -56.03125 C 54.050781 -54.070312 57.0625 -51.375 59.09375 -47.9375 C 61.132812 -44.5 62.15625 -40.539062 62.15625 -36.0625 Z M 22.5 -34.984375 C 22.5 -34.785156 22.5 -34.570312 22.5 -34.34375 C 22.5 -34.125 22.5 -33.914062 22.5 -33.71875 L 37.921875 -33.71875 C 39.003906 -33.71875 39.800781 -33.945312 40.3125 -34.40625 C 40.832031 -34.863281 41.09375 -35.613281 41.09375 -36.65625 C 41.09375 -41.78125 40.320312 -45.5625 38.78125 -48 C 37.25 -50.4375 35.179688 -51.65625 32.578125 -51.65625 C 29.660156 -51.65625 27.25 -50.234375 25.34375 -47.390625 C 23.445312 -44.554688 22.5 -40.421875 22.5 -34.984375 Z"/></g></g>
  <g fill="#173B47"><g transform="translate(780.120967,826.524917)"><path d="M 6.65625 -50.515625 L 4.375 -51.296875 C 2.582031 -51.941406 1.6875 -52.960938 1.6875 -54.359375 C 1.6875 -55.359375 2.015625 -56.109375 2.671875 -56.609375 C 3.328125 -57.109375 4.21875 -57.359375 5.34375 -57.359375 L 8.8125 -57.359375 C 9.65625 -57.359375 10.40625 -57.546875 11.0625 -57.921875 C 11.726562 -58.304688 12.5 -59 13.375 -60 L 21.484375 -69.546875 C 23.554688 -71.859375 25.515625 -73.015625 27.359375 -73.015625 C 28.359375 -73.015625 29.140625 -72.691406 29.703125 -72.046875 C 30.265625 -71.410156 30.546875 -70.472656 30.546875 -69.234375 L 30.546875 -57.359375 L 43.734375 -57.359375 C 44.816406 -57.359375 45.675781 -57.128906 46.3125 -56.671875 C 46.957031 -56.210938 47.28125 -55.539062 47.28125 -54.65625 C 47.28125 -53.375 46.640625 -52.289062 45.359375 -51.40625 C 44.078125 -50.53125 42.019531 -50.09375 39.1875 -50.09375 L 30.546875 -50.09375 L 30.546875 -19.5 C 30.546875 -16.625 31.0625 -14.441406 32.09375 -12.953125 C 33.132812 -11.472656 34.632812 -10.734375 36.59375 -10.734375 C 37.800781 -10.734375 38.773438 -10.953125 39.515625 -11.390625 C 40.253906 -11.835938 40.863281 -12.398438 41.34375 -13.078125 C 41.820312 -13.753906 42.257812 -14.421875 42.65625 -15.078125 C 43.0625 -15.742188 43.484375 -16.296875 43.921875 -16.734375 C 44.359375 -17.179688 44.914062 -17.40625 45.59375 -17.40625 C 46.28125 -17.40625 46.832031 -17.160156 47.25 -16.671875 C 47.664062 -16.191406 47.875 -15.375 47.875 -14.21875 C 47.875 -12.101562 47.375 -10.09375 46.375 -8.1875 C 45.375 -6.289062 43.972656 -4.617188 42.171875 -3.171875 C 40.378906 -1.734375 38.257812 -0.609375 35.8125 0.203125 C 33.375 1.023438 30.71875 1.4375 27.84375 1.4375 C 22 1.4375 17.457031 0.0195312 14.21875 -2.8125 C 10.976562 -5.65625 9.359375 -9.976562 9.359375 -15.78125 L 9.359375 -46.734375 C 9.359375 -47.859375 9.144531 -48.679688 8.71875 -49.203125 C 8.300781 -49.722656 7.613281 -50.160156 6.65625 -50.515625 Z"/></g></g>
  <g fill="#173B47"><g transform="translate(830.100905,826.524917)"><path d="M 35.453125 -79.078125 C 36.773438 -82.117188 38.304688 -84.476562 40.046875 -86.15625 C 41.785156 -87.84375 44.015625 -88.503906 46.734375 -88.140625 C 48.378906 -87.984375 49.738281 -87.472656 50.8125 -86.609375 C 51.894531 -85.742188 52.6875 -84.703125 53.1875 -83.484375 C 53.6875 -82.265625 53.835938 -81.015625 53.640625 -79.734375 C 53.359375 -77.617188 52.535156 -75.832031 51.171875 -74.375 C 49.816406 -72.914062 47.835938 -71.484375 45.234375 -70.078125 L 34.625 -63.296875 C 33.863281 -63.015625 33.09375 -62.875 32.3125 -62.875 C 31.53125 -62.875 30.898438 -63.097656 30.421875 -63.546875 C 29.859375 -64.097656 29.625 -64.691406 29.71875 -65.328125 C 29.820312 -65.972656 30.078125 -66.632812 30.484375 -67.3125 Z M 62.15625 -36.0625 C 62.15625 -33.582031 61.460938 -31.660156 60.078125 -30.296875 C 58.703125 -28.941406 56.71875 -28.265625 54.125 -28.265625 L 23.09375 -28.265625 C 24.0625 -23.054688 26.171875 -19.179688 29.421875 -16.640625 C 32.679688 -14.109375 36.753906 -12.84375 41.640625 -12.84375 C 44.722656 -12.84375 47.472656 -13.34375 49.890625 -14.34375 C 52.304688 -15.34375 54.394531 -16.941406 56.15625 -19.140625 C 57.113281 -20.054688 57.851562 -20.675781 58.375 -21 C 58.894531 -21.320312 59.414062 -21.484375 59.9375 -21.484375 C 60.65625 -21.484375 61.175781 -21.140625 61.5 -20.453125 C 61.820312 -19.773438 61.984375 -18.9375 61.984375 -17.9375 C 61.941406 -15.300781 61.238281 -12.8125 59.875 -10.46875 C 58.519531 -8.125 56.628906 -6.050781 54.203125 -4.25 C 51.785156 -2.457031 48.925781 -1.039062 45.625 0 C 42.332031 1.039062 38.6875 1.5625 34.6875 1.5625 C 30.195312 1.5625 26.0625 0.882812 22.28125 -0.46875 C 18.507812 -1.832031 15.222656 -3.785156 12.421875 -6.328125 C 9.617188 -8.867188 7.445312 -11.910156 5.90625 -15.453125 C 4.363281 -18.992188 3.59375 -22.921875 3.59375 -27.234375 C 3.59375 -33.554688 4.851562 -39.097656 7.375 -43.859375 C 9.894531 -48.617188 13.535156 -52.328125 18.296875 -54.984375 C 23.054688 -57.648438 28.773438 -58.984375 35.453125 -58.984375 C 41.210938 -58.984375 46.082031 -58 50.0625 -56.03125 C 54.050781 -54.070312 57.0625 -51.375 59.09375 -47.9375 C 61.132812 -44.5 62.15625 -40.539062 62.15625 -36.0625 Z M 22.5 -34.984375 C 22.5 -34.785156 22.5 -34.570312 22.5 -34.34375 C 22.5 -34.125 22.5 -33.914062 22.5 -33.71875 L 37.921875 -33.71875 C 39.003906 -33.71875 39.800781 -33.945312 40.3125 -34.40625 C 40.832031 -34.863281 41.09375 -35.613281 41.09375 -36.65625 C 41.09375 -41.78125 40.320312 -45.5625 38.78125 -48 C 37.25 -50.4375 35.179688 -51.65625 32.578125 -51.65625 C 29.660156 -51.65625 27.25 -50.234375 25.34375 -47.390625 C 23.445312 -44.554688 22.5 -40.421875 22.5 -34.984375 Z"/></g></g>
  <g fill="#173B47"><g transform="translate(895.860825,826.524917)"><path d="M 62.15625 -36.0625 C 62.15625 -33.582031 61.460938 -31.660156 60.078125 -30.296875 C 58.703125 -28.941406 56.71875 -28.265625 54.125 -28.265625 L 23.09375 -28.265625 C 24.0625 -23.054688 26.171875 -19.179688 29.421875 -16.640625 C 32.679688 -14.109375 36.753906 -12.84375 41.640625 -12.84375 C 44.722656 -12.84375 47.472656 -13.34375 49.890625 -14.34375 C 52.304688 -15.34375 54.394531 -16.941406 56.15625 -19.140625 C 57.113281 -20.054688 57.851562 -20.675781 58.375 -21 C 58.894531 -21.320312 59.414062 -21.484375 59.9375 -21.484375 C 60.65625 -21.484375 61.175781 -21.140625 61.5 -20.453125 C 61.820312 -19.773438 61.984375 -18.9375 61.984375 -17.9375 C 61.941406 -15.300781 61.238281 -12.8125 59.875 -10.46875 C 58.519531 -8.125 56.628906 -6.050781 54.203125 -4.25 C 51.785156 -2.457031 48.925781 -1.039062 45.625 0 C 42.332031 1.039062 38.6875 1.5625 34.6875 1.5625 C 30.195312 1.5625 26.0625 0.882812 22.28125 -0.46875 C 18.507812 -1.832031 15.222656 -3.785156 12.421875 -6.328125 C 9.617188 -8.867188 7.445312 -11.910156 5.90625 -15.453125 C 4.363281 -18.992188 3.59375 -22.921875 3.59375 -27.234375 C 3.59375 -33.554688 4.851562 -39.097656 7.375 -43.859375 C 9.894531 -48.617188 13.535156 -52.328125 18.296875 -54.984375 C 23.054688 -57.648438 28.773438 -58.984375 35.453125 -58.984375 C 41.210938 -58.984375 46.082031 -58 50.0625 -56.03125 C 54.050781 -54.070312 57.0625 -51.375 59.09375 -47.9375 C 61.132812 -44.5 62.15625 -40.539062 62.15625 -36.0625 Z M 22.5 -34.984375 C 22.5 -34.785156 22.5 -34.570312 22.5 -34.34375 C 22.5 -34.125 22.5 -33.914062 22.5 -33.71875 L 37.921875 -33.71875 C 39.003906 -33.71875 39.800781 -33.945312 40.3125 -34.40625 C 40.832031 -34.863281 41.09375 -35.613281 41.09375 -36.65625 C 41.09375 -41.78125 40.320312 -45.5625 38.78125 -48 C 37.25 -50.4375 35.179688 -51.65625 32.578125 -51.65625 C 29.660156 -51.65625 27.25 -50.234375 25.34375 -47.390625 C 23.445312 -44.554688 22.5 -40.421875 22.5 -34.984375 Z"/></g></g>
  <circle cx="1066" cy="820" r="48" fill="#E0A04D"/>
  <line x1="540" y1="866" x2="1114" y2="866" stroke="#173B47" stroke-width="10" stroke-linecap="round"/>
</svg>
